{"title":"Infamous.Assassinations.Leon.Trotsky.(2007).TVRip.(DivX).","uid":6658559,"size":294670880,"categoryP":"video","categoryS":"tv_shows","magnet":"?xt=urn:btih:3b0239f60c6ca7d31ef703b24c425d836f5ebf2a&amp;dn=Infamous.Assassinations.Leon.Trotsky.%282007%29.TVRip.%28DivX%29.&amp;tr=udp%3A%2F%2Ftracker.openbittorrent.com%3A80&amp;tr=udp%3A%2F%2Fopen.demonii.com%3A1337&amp;tr=udp%3A%2F%2Ftracker.coppersurfer.tk%3A6969&amp;tr=udp%3A%2F%2Fexodus.desync.com%3A6969","seeders":0,"leechers":1,"uploader":"User_01","files":-1,"time":1315419762,"description":"Infamous Assassinations is a 2007 British documentary television series about high-profile murders and attempted murders of public figures. It is currently being shown on Yesterday. Check here for full list\n &lt;a href=&quot;\nhttp://en.wikipedia.org/wiki/Infamous_Assassinations&quot; rel=&quot;nofollow&quot; target=&quot;_NEW&quot;&gt;\nhttp://en.wikipedia.org/wiki/Infamous_Assassinations&lt;/a&gt;\n\nOn 21 August 1940 in Mexico City, Bolshevik leader Trotsky was killed with an ice pick by Ramon Mercader, on the orders of Joseph Stalin\n\nMediaInfo\nGeneral\nFormat                           : AVI\nFormat/Info                      : Audio Video Interleave\nFile size                        : 281 MiB\nDuration                         : 22mn 26s\nOverall bit rate                 : 1 751 Kbps\n\nVideo\nID                               : 0\nFormat                           : MPEG-4 Visual\nFormat settings, BVOP            : Yes\nFormat settings, QPel            : No\nFormat settings, GMC             : No warppoints\nFormat settings, Matrix          : Default (H.263)\nCodec ID                         : DIVX\nCodec ID/Info                    : Project Mayo\nCodec ID/Hint                    : DivX 4\nDuration                         : 22mn 17s\nBit rate                         : 1 496 Kbps\nWidth                            : 512 pixels\nHeight                           : 384 pixels\nDisplay aspect ratio             : 4:3\nframe rate                       : 25.000 fps\nResolution                       : 24 bits\nScan type                        : Progressive\nBits/(Pixel*frame)               : 0.304\nStream size                      : 238 MiB (85%)\n\nAudio\nFormat                           : ADPCM\nCodec ID                         : 11\nCodec ID/Hint                    : Intel\nDuration                         : 22mn 26s\nBit rate mode                    : Constant\nBit rate                         : 256 Kbps\nChannel(s)                       : 2 channels\nSampling rate                    : 32.0 KHz\nResolution                       : 4 bits\nStream size                      : 41.1 MiB (15%)\nInterleave, duration             : 40 ms (1.00 video frame)","torrent":{"xt":"urn:btih:3b0239f60c6ca7d31ef703b24c425d836f5ebf2a","amp;dn":"Infamous.Assassinations.Leon.Trotsky.%282007%29.TVRip.%28DivX%29.","amp;tr":["udp%3A%2F%2Ftracker.openbittorrent.com%3A80","udp%3A%2F%2Fopen.demonii.com%3A1337","udp%3A%2F%2Ftracker.coppersurfer.tk%3A6969","udp%3A%2F%2Fexodus.desync.com%3A6969"],"infoHash":"3b0239f60c6ca7d31ef703b24c425d836f5ebf2a","infoHashBuffer":{"type":"Buffer","data":[59,2,57,246,12,108,167,211,30,247,3,178,76,66,93,131,111,94,191,42]},"announce":[],"urlList":[]}}